<svg width="18" height="18" viewBox="0 0 18 18" fill="none" xmlns="http://www.w3.org/2000/svg">
<path d="M9 0.75C4.425 0.75 0.75 4.425 0.75 9C0.75 13.575 4.425 17.25 9 17.25C13.575 17.25 17.25 13.575 17.25 9C17.25 4.425 13.575 0.75 9 0.75ZM12.75 10.5H10.5V12.75C10.5 13.575 9.825 14.25 9 14.25C8.175 14.25 7.5 13.575 7.5 12.75V10.5H5.25C4.425 10.5 3.75 9.825 3.75 9C3.75 8.175 4.425 7.5 5.25 7.5H7.5V5.25C7.5 4.425 8.175 3.75 9 3.75C9.825 3.75 10.5 4.425 10.5 5.25V7.5H12.75C13.575 7.5 14.25 8.175 14.25 9C14.25 9.825 13.575 10.5 12.75 10.5Z" fill="white" fill-opacity="0.6"/>
</svg>
