<svg width="19" height="19" viewBox="0 0 19 19" fill="none" xmlns="http://www.w3.org/2000/svg">
<path d="M18.8206 9.21014C18.8281 9.20098 18.8346 9.19133 18.8417 9.18194C18.8501 9.17066 18.8589 9.15964 18.8667 9.14791C18.8743 9.13667 18.8807 9.12498 18.8876 9.1134C18.894 9.10279 18.9007 9.09243 18.9065 9.08149C18.9128 9.06969 18.9181 9.05756 18.9238 9.04553C18.9292 9.03414 18.9349 9.02293 18.9397 9.01128C18.9446 8.99959 18.9484 8.98768 18.9527 8.97581C18.9572 8.9633 18.9619 8.95094 18.9658 8.93814C18.9694 8.92627 18.9721 8.9142 18.9751 8.90222C18.9784 8.8892 18.9821 8.87632 18.9846 8.86304C18.9874 8.84912 18.989 8.8351 18.9911 8.8211C18.9927 8.80956 18.9949 8.79817 18.996 8.78649C19.0012 8.73453 19.0012 8.68218 18.996 8.63022C18.9949 8.61854 18.9927 8.60717 18.9911 8.59564C18.989 8.58161 18.9874 8.56759 18.9846 8.55371C18.982 8.54042 18.9784 8.52758 18.975 8.51456C18.9721 8.50253 18.9694 8.49047 18.9658 8.4786C18.9619 8.46583 18.9572 8.45347 18.9527 8.44101C18.9484 8.42913 18.9446 8.41718 18.9397 8.4055C18.9349 8.39384 18.9292 8.38264 18.9238 8.37128C18.9181 8.35922 18.9128 8.34709 18.9065 8.33529C18.9007 8.32438 18.894 8.31402 18.8876 8.30341C18.8808 8.29183 18.8743 8.28014 18.8667 8.26887C18.8589 8.25717 18.8501 8.24615 18.8418 8.23492C18.8347 8.22548 18.8281 8.2158 18.8206 8.20663C18.8041 8.18664 18.7869 8.16737 18.7685 8.14908C18.7684 8.14893 18.7683 8.14878 18.7681 8.14864L16.3932 5.77373C16.0841 5.46458 15.5829 5.46458 15.2738 5.77373C14.9645 6.08288 14.9645 6.58413 15.2738 6.89328L16.2972 7.91679H11.8753C11.4381 7.91679 11.0837 8.27121 11.0837 8.70841C11.0837 9.14561 11.4381 9.50003 11.8753 9.50003H16.2972L15.2737 10.5236C14.9645 10.8327 14.9645 11.3339 15.2737 11.643C15.5828 11.9523 16.0841 11.9523 16.3932 11.643L18.7681 9.26818C18.7682 9.26803 18.7684 9.26788 18.7685 9.26774C18.7869 9.2494 18.8041 9.23018 18.8206 9.21014Z" fill="#8F8F8F"/>
<path d="M13.4596 11.0836C13.0223 11.0836 12.6679 11.438 12.6679 11.8752V15.8334H9.5014V3.16755V3.16726C9.5014 2.81766 9.27207 2.50944 8.93725 2.409L6.18719 1.58398H12.6679V5.54216C12.6679 5.97936 13.0224 6.33378 13.4596 6.33378C13.8968 6.33378 14.2512 5.97936 14.2512 5.54216V0.792356C14.2512 0.35515 13.8968 0.000733321 13.4596 0.000733321H0.793407C0.793333 0.000733321 0.793259 0.000733321 0.793185 0.000733321C0.769769 0.000696213 0.746577 0.00180944 0.723569 0.00381327C0.360432 0.0311989 0.123721 0.270062 0.0377053 0.555236C0.0321763 0.572973 0.0273522 0.591082 0.0230478 0.609413C0.0226025 0.611381 0.0222313 0.613384 0.0217861 0.615388C0.0175187 0.634238 0.0139564 0.653386 0.0110248 0.672793C0.0106166 0.67554 0.0101714 0.678248 0.00976315 0.680995C0.0072769 0.698695 0.00531018 0.716618 0.00401141 0.734764C0.00171073 0.764005 0.00100568 0.79332 0.00174783 0.822635V16.6253C0.00174783 17.0027 0.268108 17.3277 0.638147 17.4016L8.55448 18.9849C9.04434 19.0829 9.5014 18.7082 9.5014 18.2086V17.4167H13.4596C13.8968 17.4167 14.2511 17.0622 14.2511 16.625V11.8752C14.2511 11.438 13.8968 11.0836 13.4596 11.0836ZM7.91811 17.243L1.58502 15.9764V1.85665L7.91811 3.75656V16.625V17.243Z" fill="#8F8F8F"/>
</svg>
