<svg width="59" height="34" viewBox="0 0 59 34" fill="none" xmlns="http://www.w3.org/2000/svg">
<path d="M2.935 30.3143L1.081 24.3563H1.792L3.322 29.3603L4.924 24.3563H5.698L7.3 29.3603L8.83 24.3563H9.541L7.687 30.3143H6.922L5.311 25.3103L3.7 30.3143H2.935ZM11.8072 30.3863C11.3692 30.3863 10.9852 30.2843 10.6552 30.0803C10.3312 29.8703 10.0792 29.5883 9.89924 29.2343C9.71924 28.8803 9.62924 28.4903 9.62924 28.0643C9.62924 27.6323 9.71924 27.2423 9.89924 26.8943C10.0792 26.5403 10.3312 26.2613 10.6552 26.0573C10.9852 25.8473 11.3692 25.7423 11.8072 25.7423C12.1792 25.7423 12.4972 25.8143 12.7612 25.9583C13.0312 26.1023 13.2502 26.2973 13.4182 26.5433V25.8143H14.0932V30.3143H13.4182V29.5943C13.2502 29.8343 13.0312 30.0263 12.7612 30.1703C12.4972 30.3143 12.1792 30.3863 11.8072 30.3863ZM11.8972 29.7743C12.2332 29.7743 12.5152 29.6963 12.7432 29.5403C12.9772 29.3843 13.1542 29.1773 13.2742 28.9193C13.3942 28.6553 13.4542 28.3703 13.4542 28.0643C13.4542 27.7523 13.3942 27.4673 13.2742 27.2093C13.1542 26.9513 12.9772 26.7443 12.7432 26.5883C12.5152 26.4323 12.2332 26.3543 11.8972 26.3543C11.5672 26.3543 11.2822 26.4323 11.0422 26.5883C10.8022 26.7443 10.6192 26.9513 10.4932 27.2093C10.3672 27.4673 10.3042 27.7523 10.3042 28.0643C10.3042 28.3703 10.3672 28.6553 10.4932 28.9193C10.6192 29.1773 10.8022 29.3843 11.0422 29.5403C11.2822 29.6963 11.5672 29.7743 11.8972 29.7743ZM15.7468 30.3143V26.4083H14.8288V25.8143H15.7468V24.2033H16.4218V25.8143H17.4568V26.4083H16.4218V30.3143H15.7468ZM20.0434 30.3863C19.5934 30.3863 19.2034 30.2843 18.8734 30.0803C18.5434 29.8703 18.2854 29.5883 18.0994 29.2343C17.9194 28.8803 17.8294 28.4903 17.8294 28.0643C17.8294 27.6323 17.9194 27.2423 18.0994 26.8943C18.2854 26.5403 18.5434 26.2613 18.8734 26.0573C19.2034 25.8473 19.5934 25.7423 20.0434 25.7423C20.5774 25.7423 21.0304 25.8803 21.4024 26.1563C21.7804 26.4323 22.0354 26.7893 22.1674 27.2273H21.4384C21.3364 26.9693 21.1714 26.7593 20.9434 26.5973C20.7214 26.4353 20.4514 26.3543 20.1334 26.3543C19.8034 26.3543 19.5154 26.4323 19.2694 26.5883C19.0234 26.7443 18.8344 26.9513 18.7024 27.2093C18.5704 27.4673 18.5044 27.7523 18.5044 28.0643C18.5044 28.3703 18.5704 28.6553 18.7024 28.9193C18.8344 29.1773 19.0234 29.3843 19.2694 29.5403C19.5154 29.6963 19.8034 29.7743 20.1334 29.7743C20.4514 29.7743 20.7214 29.6933 20.9434 29.5313C21.1714 29.3693 21.3364 29.1593 21.4384 28.9013H22.1674C22.0354 29.3393 21.7804 29.6963 21.4024 29.9723C21.0304 30.2483 20.5774 30.3863 20.0434 30.3863ZM23.0039 30.3143V24.0143H23.6789V26.5163C23.8409 26.3003 24.0389 26.1173 24.2729 25.9673C24.5069 25.8173 24.8069 25.7423 25.1729 25.7423C25.4849 25.7423 25.7759 25.8173 26.0459 25.9673C26.3219 26.1113 26.5439 26.3303 26.7119 26.6243C26.8859 26.9123 26.9729 27.2693 26.9729 27.6953V30.3143H26.2979V27.7133C26.2979 27.3053 26.1809 26.9783 25.9469 26.7323C25.7129 26.4803 25.4099 26.3543 25.0379 26.3543C24.7859 26.3543 24.5579 26.4113 24.3539 26.5253C24.1499 26.6393 23.9849 26.8013 23.8589 27.0113C23.7389 27.2153 23.6789 27.4523 23.6789 27.7223V30.3143H23.0039ZM28.2456 30.3143V24.3563H30.9186C31.3866 24.3563 31.7556 24.4373 32.0256 24.5993C32.3016 24.7613 32.4996 24.9653 32.6196 25.2113C32.7396 25.4513 32.7996 25.6913 32.7996 25.9313C32.7996 26.3153 32.7186 26.6123 32.5566 26.8223C32.3946 27.0263 32.2086 27.1763 31.9986 27.2723C32.1666 27.3263 32.3346 27.4133 32.5026 27.5333C32.6766 27.6473 32.8206 27.8033 32.9346 28.0013C33.0486 28.1993 33.1056 28.4483 33.1056 28.7483C33.1056 29.1923 32.9346 29.5643 32.5926 29.8643C32.2566 30.1643 31.7496 30.3143 31.0716 30.3143H28.2456ZM28.9206 27.0203H30.9186C31.1286 27.0203 31.3236 26.9843 31.5036 26.9123C31.6896 26.8403 31.8396 26.7293 31.9536 26.5793C32.0676 26.4233 32.1246 26.2253 32.1246 25.9853C32.1246 25.8173 32.0856 25.6583 32.0076 25.5083C31.9356 25.3583 31.8156 25.2353 31.6476 25.1393C31.4856 25.0433 31.2666 24.9953 30.9906 24.9953H28.9206V27.0203ZM28.9206 29.6753H31.1436C31.5516 29.6753 31.8666 29.5913 32.0886 29.4233C32.3166 29.2493 32.4306 29.0063 32.4306 28.6943C32.4306 28.4123 32.3226 28.1663 32.1066 27.9563C31.8906 27.7403 31.5456 27.6323 31.0716 27.6323H28.9206V29.6753ZM36.0586 30.3863C35.6026 30.3863 35.2036 30.2843 34.8616 30.0803C34.5196 29.8703 34.2526 29.5883 34.0606 29.2343C33.8746 28.8803 33.7816 28.4903 33.7816 28.0643C33.7816 27.6323 33.8716 27.2423 34.0516 26.8943C34.2316 26.5403 34.4896 26.2613 34.8256 26.0573C35.1616 25.8473 35.5576 25.7423 36.0136 25.7423C36.4756 25.7423 36.8716 25.8473 37.2016 26.0573C37.5376 26.2613 37.7956 26.5403 37.9756 26.8943C38.1556 27.2423 38.2456 27.6323 38.2456 28.0643V28.3343H34.4746C34.5106 28.5983 34.5946 28.8413 34.7266 29.0633C34.8646 29.2793 35.0476 29.4533 35.2756 29.5853C35.5036 29.7113 35.7676 29.7743 36.0676 29.7743C36.3856 29.7743 36.6526 29.7053 36.8686 29.5673C37.0846 29.4233 37.2526 29.2403 37.3726 29.0183H38.1106C37.9546 29.4203 37.7056 29.7503 37.3636 30.0083C37.0276 30.2603 36.5926 30.3863 36.0586 30.3863ZM34.4836 27.7043H37.5436C37.4836 27.3203 37.3216 26.9993 37.0576 26.7413C36.7936 26.4833 36.4456 26.3543 36.0136 26.3543C35.5816 26.3543 35.2336 26.4833 34.9696 26.7413C34.7116 26.9993 34.5496 27.3203 34.4836 27.7043ZM39.5384 32.0963L40.3574 30.2513L38.5214 25.8143H39.2684L40.7174 29.5043L42.1934 25.8143H42.9314L40.2674 32.0963H39.5384ZM45.4091 30.3863C44.9531 30.3863 44.5571 30.2843 44.2211 30.0803C43.8851 29.8703 43.6271 29.5883 43.4471 29.2343C43.2671 28.8803 43.1771 28.4903 43.1771 28.0643C43.1771 27.6323 43.2671 27.2423 43.4471 26.8943C43.6271 26.5403 43.8851 26.2613 44.2211 26.0573C44.5571 25.8473 44.9531 25.7423 45.4091 25.7423C45.8711 25.7423 46.2671 25.8473 46.5971 26.0573C46.9331 26.2613 47.1911 26.5403 47.3711 26.8943C47.5511 27.2423 47.6411 27.6323 47.6411 28.0643C47.6411 28.4903 47.5511 28.8803 47.3711 29.2343C47.1911 29.5883 46.9331 29.8703 46.5971 30.0803C46.2671 30.2843 45.8711 30.3863 45.4091 30.3863ZM45.4091 29.7743C45.7451 29.7743 46.0271 29.6963 46.2551 29.5403C46.4891 29.3843 46.6661 29.1773 46.7861 28.9193C46.9061 28.6553 46.9661 28.3703 46.9661 28.0643C46.9661 27.7523 46.9061 27.4673 46.7861 27.2093C46.6661 26.9513 46.4891 26.7443 46.2551 26.5883C46.0271 26.4323 45.7451 26.3543 45.4091 26.3543C45.0791 26.3543 44.7971 26.4323 44.5631 26.5883C44.3291 26.7443 44.1521 26.9513 44.0321 27.2093C43.9121 27.4673 43.8521 27.7523 43.8521 28.0643C43.8521 28.3703 43.9121 28.6553 44.0321 28.9193C44.1521 29.1773 44.3291 29.3843 44.5631 29.5403C44.7971 29.6963 45.0791 29.7743 45.4091 29.7743ZM48.5362 30.3143V25.8143H49.2112V26.5163C49.3732 26.3003 49.5712 26.1173 49.8052 25.9673C50.0392 25.8173 50.3392 25.7423 50.7052 25.7423C51.0172 25.7423 51.3082 25.8173 51.5782 25.9673C51.8542 26.1113 52.0762 26.3303 52.2442 26.6243C52.4182 26.9123 52.5052 27.2693 52.5052 27.6953V30.3143H51.8302V27.7133C51.8302 27.3053 51.7132 26.9783 51.4792 26.7323C51.2452 26.4803 50.9422 26.3543 50.5702 26.3543C50.3182 26.3543 50.0902 26.4113 49.8862 26.5253C49.6822 26.6393 49.5172 26.8013 49.3912 27.0113C49.2712 27.2153 49.2112 27.4523 49.2112 27.7223V30.3143H48.5362ZM55.5328 30.3863C55.0948 30.3863 54.7108 30.2843 54.3808 30.0803C54.0568 29.8703 53.8048 29.5883 53.6248 29.2343C53.4448 28.8803 53.3548 28.4903 53.3548 28.0643C53.3548 27.6323 53.4448 27.2423 53.6248 26.8943C53.8048 26.5403 54.0568 26.2613 54.3808 26.0573C54.7108 25.8473 55.0948 25.7423 55.5328 25.7423C55.9048 25.7423 56.2228 25.8143 56.4868 25.9583C56.7568 26.1023 56.9758 26.2973 57.1438 26.5433V24.0143H57.8188V30.3143H57.1438V29.5943C56.9758 29.8343 56.7568 30.0263 56.4868 30.1703C56.2228 30.3143 55.9048 30.3863 55.5328 30.3863ZM55.6228 29.7743C55.9588 29.7743 56.2408 29.6963 56.4688 29.5403C56.7028 29.3843 56.8798 29.1773 56.9998 28.9193C57.1198 28.6553 57.1798 28.3703 57.1798 28.0643C57.1798 27.7523 57.1198 27.4673 56.9998 27.2093C56.8798 26.9513 56.7028 26.7443 56.4688 26.5883C56.2408 26.4323 55.9588 26.3543 55.6228 26.3543C55.2928 26.3543 55.0078 26.4323 54.7678 26.5883C54.5278 26.7443 54.3448 26.9513 54.2188 27.2093C54.0928 27.4673 54.0298 27.7523 54.0298 28.0643C54.0298 28.3703 54.0928 28.6553 54.2188 28.9193C54.3448 29.1773 54.5278 29.3843 54.7678 29.5403C55.0078 29.6963 55.2928 29.7743 55.6228 29.7743Z" fill="#DED7D7"/>
<path d="M29.3672 5.61719C30.9062 5.61719 31.6758 6.25 31.6758 7.51562C31.6758 8.29688 31.4453 9.08984 30.9844 9.89453C30.5234 10.6992 30.0273 11.4648 29.4961 12.1914C28.9727 12.9102 28.4062 13.625 27.7969 14.3359C27.1953 15.0391 26.5586 15.7266 25.8867 16.3984C25.2227 17.0625 24.5508 17.6914 23.8711 18.2852C23.1992 18.8789 22.5312 19.4219 21.8672 19.9141C21.2109 20.4062 20.5859 20.8281 19.9922 21.1797C18.7422 21.9375 17.7734 22.3164 17.0859 22.3164C15.8125 22.3164 14.6875 21.8125 13.7109 20.8047C12.8828 19.9453 12.4883 18.7422 12.5273 17.1953C11.3711 18.4453 9.96094 19.5664 8.29688 20.5586C6.67969 21.5273 5.41406 22.0117 4.5 22.0117C3.72656 22.0117 2.96875 21.5703 2.22656 20.6875C1.50781 19.8438 1.14844 19.082 1.14844 18.4023C1.14844 17.7148 1.25 17.0273 1.45312 16.3398C1.66406 15.6523 1.94141 14.9492 2.28516 14.2305C2.63672 13.5117 3.03906 12.793 3.49219 12.0742C3.94531 11.3477 4.41406 10.6445 4.89844 9.96484C5.38281 9.27734 5.86719 8.62891 6.35156 8.01953L7.67578 6.36719C7.85547 6.15625 8.08594 6.05078 8.36719 6.05078C8.65625 6.05078 8.95703 6.13281 9.26953 6.29688C9.58203 6.46094 9.86719 6.67188 10.125 6.92969C10.7266 7.51562 11.0195 8.07422 11.0039 8.60547C10.9648 9.26172 10.2422 10.5234 8.83594 12.3906L7.80469 13.7969C7.0625 14.8594 6.68359 15.5938 6.66797 16C6.65234 16.2344 6.71875 16.4375 6.86719 16.6094C7.13281 16.9062 7.35938 17.0547 7.54688 17.0547C8.6875 17.0547 10.2656 16.0859 12.2812 14.1484L14.1094 12.3203C15.2344 10.1641 16.4141 8.38672 17.6484 6.98828C18.1875 6.37109 18.5547 6.0625 18.75 6.0625C19.4766 6.0625 20.1016 6.33594 20.625 6.88281C21.0781 7.34375 21.2969 7.74219 21.2812 8.07812C21.2656 8.41406 21.1875 8.73047 21.0469 9.02734C20.9062 9.32422 20.7227 9.63281 20.4961 9.95312C20.2773 10.2656 20.0312 10.5859 19.7578 10.9141L18.9141 11.9219C18 13.0156 17.4531 13.8203 17.2734 14.3359C17.0781 14.9062 16.9766 15.3516 16.9688 15.6719C16.9609 15.9922 17.0273 16.2617 17.168 16.4805C17.3086 16.6914 17.4922 16.8633 17.7188 16.9961C18.1719 17.2539 18.7227 17.3828 19.3711 17.3828C19.7617 17.3828 20.3438 17.0469 21.1172 16.375C22.3906 15.2656 23.5 13.8828 24.4453 12.2266C24.7656 11.6562 25 11.1719 25.1484 10.7734C25.3047 10.375 25.4531 10.0156 25.5938 9.69531C25.7422 9.375 25.9141 9.03516 26.1094 8.67578C26.3047 8.31641 26.5234 7.95703 26.7656 7.59766C27.0078 7.23047 27.2656 6.89844 27.5391 6.60156C28.1641 5.94531 28.7734 5.61719 29.3672 5.61719ZM40.9453 14.875C40.9453 14.6406 40.7812 14.5234 40.4531 14.5234C40.125 14.5234 39.7656 14.5859 39.375 14.7109C38.9844 14.8359 38.5547 15 38.0859 15.2031C37.6172 15.4062 37.1289 15.6367 36.6211 15.8945C36.1133 16.1523 35.625 16.4141 35.1562 16.6797C34.1484 17.25 33.4609 17.6875 33.0938 17.9922C32.7344 18.2891 32.4375 18.5508 32.2031 18.7773C31.9766 19.0039 31.75 19.2109 31.5234 19.3984C30.9922 19.8359 30.5898 20.0547 30.3164 20.0547C30.043 20.0547 29.7969 20.0117 29.5781 19.9258C29.3594 19.832 29.1602 19.7031 28.9805 19.5391C28.5586 19.1406 28.3477 18.668 28.3477 18.1211C28.3477 17.1523 29.2031 15.25 30.9141 12.4141C31.6484 11.1953 32.3594 10.125 33.0469 9.20312C33.7344 8.27344 34.3945 7.48437 35.0273 6.83594C35.6602 6.17969 36.2656 5.625 36.8438 5.17188C38.0312 4.24219 38.9766 3.77734 39.6797 3.77734C39.8828 3.77734 40.0508 3.85156 40.1836 4C40.3164 4.14844 40.3828 4.30859 40.3828 4.48047C40.3828 4.87109 40.2578 5.27734 40.0078 5.69922C39.7656 6.11328 39.4414 6.63672 39.0352 7.26953L36.5391 11.0547C35.7578 12.2578 35.3477 12.9336 35.3086 13.082C35.2773 13.2227 35.2617 13.3242 35.2617 13.3867C35.2617 13.4492 35.3047 13.4805 35.3906 13.4805C35.4766 13.4805 35.7188 13.3906 36.1172 13.2109C36.1172 13.2109 36.6172 12.9844 37.6172 12.5312C39.875 11.5469 41.6992 11.0547 43.0898 11.0547C43.8789 11.0547 44.5391 11.418 45.0703 12.1445C45.5625 12.8242 45.8086 13.5586 45.8086 14.3477C45.8086 15.1367 45.6875 15.8164 45.4453 16.3867C45.2031 16.957 44.8438 17.4062 44.3672 17.7344C43.8984 18.0625 43.4297 18.3672 42.9609 18.6484L41.4609 19.5391C38.625 21.125 36.5664 21.918 35.2852 21.918C33.5117 21.918 32.625 21.457 32.625 20.5352C32.625 20.0352 32.8672 19.6641 33.3516 19.4219C37.8125 17.0078 40.1406 15.7383 40.3359 15.6133C40.7422 15.3555 40.9453 15.1094 40.9453 14.875Z" fill="#DED7D7"/>
</svg>
