<svg width="20" height="20" viewBox="2 0 16 15" fill="none" xmlns="http://www.w3.org/2000/svg">
<path d="M12.85 11.5249L9.93126 8.60615C10.513 7.69772 10.7386 6.60638 10.5647 5.54175C10.3909 4.47711 9.82985 3.51424 8.98935 2.83805C8.14885 2.16185 7.08816 1.82002 6.01099 1.8782C4.93383 1.93637 3.91613 2.39046 3.15335 3.15324C2.39056 3.91602 1.93648 4.93372 1.8783 6.01089C1.82013 7.08806 2.16196 8.14874 2.83815 8.98924C3.51434 9.82974 4.47722 10.3908 5.54185 10.5646C6.60649 10.7385 7.69782 10.5129 8.60626 9.93115L11.525 12.8499C11.7008 13.0255 11.9391 13.1241 12.1875 13.1241C12.4359 13.1241 12.6742 13.0255 12.85 12.8499C12.9377 12.7633 13.0073 12.6601 13.0548 12.5464C13.1023 12.4327 13.1268 12.3107 13.1268 12.1874C13.1268 12.0642 13.1023 11.9421 13.0548 11.8284C13.0073 11.7147 12.9377 11.6115 12.85 11.5249ZM3.12501 6.2499C3.12501 5.63184 3.30829 5.02765 3.65167 4.51375C3.99505 3.99984 4.4831 3.5993 5.05412 3.36278C5.62514 3.12625 6.25348 3.06437 6.85967 3.18495C7.46586 3.30553 8.02268 3.60315 8.45972 4.04019C8.89676 4.47723 9.19438 5.03405 9.31496 5.64025C9.43554 6.24644 9.37366 6.87477 9.13713 7.44579C8.90061 8.01681 8.50007 8.50487 7.98617 8.84824C7.47226 9.19162 6.86808 9.3749 6.25001 9.3749C5.42121 9.3749 4.62635 9.04566 4.0403 8.45961C3.45425 7.87356 3.12501 7.0787 3.12501 6.2499Z" fill="#464646"/>
</svg>
