<svg width="18" height="18" viewBox="0 0 18 18" fill="none" xmlns="http://www.w3.org/2000/svg">
<path d="M16.154 10.0267C15.8171 9.79133 15.6158 9.41332 15.6158 9.01506C15.6158 8.61679 15.8171 8.23878 16.1535 8.00388L17.7101 6.9171C17.9582 6.74339 18.0608 6.43783 17.9639 6.15928C17.5632 5.01265 16.9295 3.96682 16.0798 3.05014C15.8752 2.83054 15.5454 2.76123 15.2632 2.87914L13.5105 3.61311C13.1287 3.77331 12.684 3.75036 12.3216 3.55101C11.9596 3.3521 11.7167 2.99749 11.6709 2.60193L11.4601 0.769479C11.4266 0.477871 11.1988 0.240265 10.8973 0.181313C9.67008 -0.0576435 8.38048 -0.0616935 7.13152 0.176813C6.82814 0.234865 6.59989 0.472471 6.56634 0.765429L6.35747 2.58618C6.31164 2.98219 6.06874 3.3368 5.70582 3.5357C5.34384 3.73461 4.90059 3.75846 4.51734 3.59781L2.75519 2.85979C2.47544 2.74188 2.14465 2.81029 1.94003 3.02944C1.08754 3.94252 0.45101 4.98699 0.0460309 6.13273C-0.0522605 6.41083 0.0498113 6.71819 0.298848 6.89235L1.84552 7.97238C2.18292 8.20818 2.38423 8.58619 2.38423 8.98445C2.38423 9.38272 2.18292 9.76073 1.84646 9.99563L0.289869 11.0824C0.0417778 11.2561 -0.0607664 11.5617 0.0361073 11.8402C0.436834 12.9869 1.07053 14.0327 1.92018 14.9494C2.1248 15.1694 2.45559 15.2392 2.73676 15.1204L4.48946 14.3864C4.87129 14.2262 5.31549 14.2491 5.67841 14.4485C6.04039 14.6474 6.28328 15.002 6.32912 15.3976L6.53988 17.23C6.57343 17.5216 6.8012 17.7592 7.10269 17.8182C7.72363 17.9388 8.36158 18 9 18C9.62283 18 10.2513 17.9401 10.868 17.8222C11.1714 17.7642 11.3996 17.5266 11.4332 17.2336L11.6425 15.4129C11.6884 15.0169 11.9313 14.6623 12.2942 14.4634C12.6562 14.2649 13.0999 14.2415 13.4827 14.4013L15.2448 15.1393C15.5255 15.2576 15.8554 15.1892 16.06 14.9696C16.9125 14.0565 17.549 13.0121 17.954 11.8663C18.0523 11.5882 17.9502 11.2809 17.7012 11.1067L16.154 10.0267ZM9 12.1498C7.1731 12.1498 5.69212 10.7395 5.69212 8.99975C5.69212 7.26001 7.1731 5.84967 9 5.84967C10.8269 5.84967 12.3079 7.26001 12.3079 8.99975C12.3079 10.7395 10.8269 12.1498 9 12.1498Z" fill="#9C9C9C"/>
</svg>
